<svg id="fad4e686-136f-4a0f-979c-1f76c7b9346e" data-name="Layer 1" width="80" height="80"
  xmlns="http://www.w3.org/2000/svg" viewBox="0 0 50 50">
  <defs>
    <style>
      .baad2e40-c7bd-410e-8691-10914b069d06 {
        fill: #5893ce;
      }

      .baad2e40-c7bd-410e-8691-10914b069d06,
      .bc345f65-bc55-4b51-b24d-34558dac3f13,
      .f1f68a6d-d0b2-4a3a-b031-0c253b799f12,
      .f6f9600c-e47a-49ea-a37c-e06c334207be,
      .fde23005-240b-43cd-908a-53c41d4f5be4 {
        fill-rule: evenodd;
      }

      .bc345f65-bc55-4b51-b24d-34558dac3f13 {
        fill: #41a5dc;
      }

      .b2d78d75-94a0-4c1c-a943-cb30ef989ff7,
      .fde23005-240b-43cd-908a-53c41d4f5be4 {
        fill: #283878;
      }

      .b98b7382-e4b6-4967-8709-68c491546246,
      .f6f9600c-e47a-49ea-a37c-e06c334207be {
        fill: #fff;
      }

      .f1f68a6d-d0b2-4a3a-b031-0c253b799f12 {
        fill: #198bcc;
      }
    </style>
  </defs>
  <title>ipl</title>
  <g>
    <g>
      <path class="baad2e40-c7bd-410e-8691-10914b069d06"
        d="M12.56069,12.9226c-4.83387-.08192-8.88939,5.16159-8.88939,5.16159h.594c8.50051-8.0789,16.66608-.07648,11.081,8.7665-2.99045,5.0387-7.005,5.77608-7.005,5.77608a10.84837,10.84837,0,0,0,6.28586-3.73086c4.47615-3.59086,6.84036-16.20132-2.06646-15.97331Z" />
      <path class="bc345f65-bc55-4b51-b24d-34558dac3f13"
        d="M1.04954,22.67228s1.22893-3.0314,2.00727-3.6459l.16388.24581a18.9716,18.9716,0,0,0-2.17115,3.40009Z" />
      <path class="fde23005-240b-43cd-908a-53c41d4f5be4"
        d="M32.50788,37.232V32.272c3.29988-.69879,2.764,5.33542,0,4.96005Zm6.64936,6.865a64.28514,64.28514,0,0,0,0-13.40653h4.24122A47.8583,47.8583,0,0,0,43.21875,42.228c1.64138.4673,3.3187-.07184,4.92413-.2156L47.99912,44.097c-2.516-.11977-4.96008-.1677-7.44011-.14374l-1.40177.14377Zm-10.49521,0a52.5839,52.5839,0,0,0,0-13.44248h6.0024c6.73484-.07435,4.11023,9.17932-2.15655,7.22444,0,2.07267.17971,4.14537.32348,6.218Zm-5.42732-.03589a55.46386,55.46386,0,0,0-.03592-13.37064H27.44a66.8441,66.8441,0,0,0,0,13.40653l-4.20528-.03589Z" />
      <path class="b2d78d75-94a0-4c1c-a943-cb30ef989ff7"
        d="M7.19856,42.567s.01-.66126.18488-.72867a6.18293,6.18293,0,0,0,.99094-.88346,6.18419,6.18419,0,0,1,.78695-1.04014s.22223-.50459.3297-.53375l.418-.96178a5.3506,5.3506,0,0,0,1.13671-1.04013s.22312-.48455.33973-.50459a11.28364,11.28364,0,0,0,.03917-2.18592,6.72047,6.72047,0,0,0-.16485-1.195s-.22319-1.33067-.583-1.57384a13.99247,13.99247,0,0,0,2.2242-1.42817,19.50431,19.50431,0,0,0,1.7105-1.57383l.34976.30054s.24317,0,.204.46637c0,0,.61206.6612.68947.79694l.48545.51457a2.14214,2.14214,0,0,1,.84523,1.03013,22.95729,22.95729,0,0,1,1.22415,2.48742s.57289-.54376,1.0784-.23319a.55384.55384,0,0,1,.13664.71864l-1.15677,1.49642a7.80631,7.80631,0,0,1-.81606.29149,2.95332,2.95332,0,0,0-1.17495,1.0201l-3.03117,2.83621-.50548.14577a3.24722,3.24722,0,0,0-.15578.95269s-.04824.5337-.194.63117c0,0-.57382-.05735-.70953-.33974l-.5729-.73864a12.333,12.333,0,0,0-1.817,2.16679s.06741.388-.08744.50462c0,0-1.807.44718-2.12762-.31063,0,0-.0483-.62209-.13574-.62209,0,0-.03914-.46629.05833-.46629Z" />
      <path class="b98b7382-e4b6-4967-8709-68c491546246"
        d="M7.55833,43.374V42.781s.19306-.3689.5337-.25232c0,0,.90444.10747.92358.43718l.09652.34974a.201.201,0,0,1-.11655.31062A1.9646,1.9646,0,0,1,7.55833,43.374Z" />
      <path class="b98b7382-e4b6-4967-8709-68c491546246"
        d="M12.1925,41.7709l-.30149-.49545s-.07744-.17578.14574-.16578a3.57973,3.57973,0,0,1,.48545-.11658,3.157,3.157,0,0,1-.00913.87439.24684.24684,0,0,1-.32057-.09658Z" />
      <path class="b98b7382-e4b6-4967-8709-68c491546246"
        d="M12.99852,35.53376a1.64955,1.64955,0,0,1,1.195-.23319s.71861.174.816.35887a2.65847,2.65847,0,0,0-1.43817-.23318l.22408.02917a6.20481,6.20481,0,0,0-.797.07833Z" />
      <path class="b98b7382-e4b6-4967-8709-68c491546246"
        d="M17.43873,36.28149s.44721-.612.6995-.612c0,0,.786-.26325.30054-1.08843,0,0,.67037-.572,1.04927-.21313a.669.669,0,0,1,.10747.35885,6.1854,6.1854,0,0,1-.797.76783s-.72772.62209-.89347.61206a.73107.73107,0,0,1-.46634.17484Z" />
      <path class="b2d78d75-94a0-4c1c-a943-cb30ef989ff7"
        d="M5.45982,22.98111a3.16718,3.16718,0,0,1-.52465-1.3407s-.16575-.32063.388-1.09752a1.59839,1.59839,0,0,1,2.06934-.49551s.39894.10658.82612.981a4.0407,4.0407,0,0,0,.6412.28236s.10657.24226-.46632.50459l.16485.39891s.43721-.08744.44721-.15575l.03914.194-.00037.00021.01291.06192.0066-.00382.04827.22405s.6995-.67126,1.13668-1.12758a7.42319,7.42319,0,0,1,.35977-1.0201,8.404,8.404,0,0,1-.15572-1.15579,1.34466,1.34466,0,0,1,.99094-.30149s-.14572-.54283-.398-.50459v-.11658s-.797.10747-.72865.7578a.656.656,0,0,1-.67036-.14571l-.24319-.6704s-.2514-.17577-.50459.21316c0,0-2.73968.57379-4.77988.88439,0,0-2.92552.44717-3.86729.09747,0,0-.36887-.66126-.04827-1.03016l.58289.01s-.602.11658-.66031.29146a14.2925,14.2925,0,0,0,4.187-.24316s4.0813-.71867,4.58589-.84522c0,0-.0674-.184-.204-.13574,0,0-3.94559.66033-4.7125.63119,0,0,4.0713-.7095,4.65423-.6995,0,0,.16575-.09652.46634.21405a.58707.58707,0,0,0,.17485-.14574s-.02.34974.15486.34974c0,0,.0109.194.0783.194l.26233.37888s1.17582-.38888,1.399-.47633c0,0-.01913-.24228-.05833-.25229l-1.409.45629L9.38446,17.56l.31062.43717s.97178-.29143,1.43815-.398l-.14572-.56382s.13569.34069.17486-.10652l.0683.29144s.32971-.02914.09657.32062a6.65279,6.65279,0,0,0,.13659.69946l.62119.30149-.31059.194.35976.01s-.48548.3206-.34973.55374a.57218.57218,0,0,0,.67947.06741s.18578.17488.25319.17488c0,0,.06735.17578-.15578.28235l-.42715,1.8553s-.10744.4964-.27232.62209l-1.14671,2.17592a12.94207,12.94207,0,0,1,1.79791,1.72961l1.195,1.85529-.01.214.3106.14577a12.67709,12.67709,0,0,1-3.5166,3.26427,1.41046,1.41046,0,0,1-.03917-1.0693s-.28054-.77691-.21313-.77691c0,0-.11753-.408-.31149-.52462l-2.03018-1.807L6.45078,26.158s-.215-.16485-.19491-1.21409c0,0-.44631-.12658-.3106-.49549,0,0-.3106-.50548-.23316-.59292,0,0,.36977,0,.41805-.08744,0,0,.30149.36066.55378.34063,0,0-.60295-.48635-.6904-.428,0,0-.42625-.194-.47544-.3689,0,0,.39893.3798.32062.12661l-.28235-.18489s-.02917-.26322-.09655-.27232Z" />
      <path class="b2d78d75-94a0-4c1c-a943-cb30ef989ff7"
        d="M9.47464,16.74935l1.45728-.14572v.13846s-.2696-.13846-.3643.1093c0,0-.255-.29872-.39348.00728,0,0-.34248-.2623-.43717.102a1.73058,1.73058,0,0,0-.26233-.21133Z" />
      <path class="b2d78d75-94a0-4c1c-a943-cb30ef989ff7"
        d="M11.20882,16.69838s.08013-.18944.3643-.08743c0,0,.99825-.10931,1.15857.22584a1.82885,1.82885,0,0,1,.153.48823l.49548.09472-.0583.561-.255.13114s-.051.57561-.06556.70679c0,0-.16032-.8671-.48092-.66306a.615.615,0,0,1-.3789-.16031l-.38619-.19673.38619.051s.43718.08013.17486-.255c0,0,.60477.0947.33519-.153l.14572-.051s-.1093-.60475-.23316-.64849c0,0-.153.02917-.12389.153,0,0-.204-.37162-.40073-.08019,0,0-.16032-.2113-.357-.10929a.56273.56273,0,0,0-.4736-.00726Z" />
      <path class="b98b7382-e4b6-4967-8709-68c491546246"
        d="M5.65318,22.81623s-.04374.34977.10929.46634a6.67635,6.67635,0,0,0,1.08566.79421,3.6841,3.6841,0,0,0,2.19321-.61932,4.82074,4.82074,0,0,0-.06556-.62663l.204-.16032v-.09472l-.2259.1676-.12383-.306.24044-.13843-.03643-.09475a9.06348,9.06348,0,0,1-2.2078.77238l-.61932.14571s-.33519.08744-.357-.459l-.03642.02916s-.03645.53191.38616.53191c0,0,2.25148-.56833,2.543-.73595,0,0,.12387.09472.16758.95454,0,0-1.76332.89621-2.30251.357l-.75778-.55376s-.2259-.29146-.19673-.42992Z" />
      <polygon class="b98b7382-e4b6-4967-8709-68c491546246"
        points="6.968 23.975 7.31 22.969 7.427 22.918 7.092 23.967 6.968 23.975 6.968 23.975" />
      <path class="b98b7382-e4b6-4967-8709-68c491546246"
        d="M8.22859,23.71957A3.25852,3.25852,0,0,0,8.01,22.70678l.14575-.02188s.13118.74323.17488,1.00556l-.102.02911Z" />
      <path class="b98b7382-e4b6-4967-8709-68c491546246"
        d="M6.18841,23.26782s.01454.4299,1.297.13846A3.61753,3.61753,0,0,0,9.154,22.65576l-.0146-.08744a2.72955,2.72955,0,0,1-1.552.67036,2.22574,2.22574,0,0,1-1.399.02914Z" />
      <polygon class="f1f68a6d-d0b2-4a3a-b031-0c253b799f12"
        points="21.389 27.2 49.953 27.2 49.953 15.629 21.389 15.629 21.389 27.2 21.389 27.2" />
      <path class="f6f9600c-e47a-49ea-a37c-e06c334207be"
        d="M42.79041,20.717c.22915-.04351,1.81544-.01877,2.17856-.01877a4.82225,4.82225,0,0,1,1.05993.0474,1.607,1.607,0,0,1-.14057,3.11093c-.2473.04245-1.80657.01874-2.18331.01874a4.9057,4.9057,0,0,1-1.0593-.04574,1.61563,1.61563,0,0,1-1.05085-2.09882A1.51259,1.51259,0,0,1,42.79041,20.717Zm5.34574,1.87129a2.57931,2.57931,0,0,0-.88-2.28575,2.4715,2.4715,0,0,0-1.07023-.528,8.1866,8.1866,0,0,0-1.53208-.05357q-.79881,0-1.5974,0a2.395,2.395,0,0,0-1.27383.32912,2.62119,2.62119,0,0,0-.3619,4.21966,3.43261,3.43261,0,0,0,2.59919.58757h1.59783a2.49306,2.49306,0,0,0,2.5184-2.269ZM33.01186,20.41976a2.74249,2.74249,0,0,0,.39218.657l1.26271,1.85645c.24649.36436.58757.88782.84229,1.23737a1.51047,1.51047,0,0,0,2.62786-.11293c.27533-.39941.55272-.81859.84207-1.238l1.475-2.17035a.52728.52728,0,0,0-.50926-.84187c-.2708.054-.3893.29677-.52964.51111l-.8392,1.23879c-.28112.40374-.55975.83116-.84271,1.23614-.14406.20711-.27471.408-.4194.61971-.11726.17105-.30521.48347-.62443.40722-.23535-.0579-.39857-.35076-.51544-.52655-.14136-.21125-.27389-.40312-.41918-.61971-.28132-.41012-.54964-.80088-.84208-1.23674-.28317-.4229-.54676-.80993-.84147-1.23819-.13065-.19124-.27782-.4565-.63619-.39178a.52651.52651,0,0,0-.42311.61229Zm-9.81872-.01586a2.34853,2.34853,0,0,0,.38764.66174l1.68088,2.47453c.41734.62487.82292,1.374,1.78124,1.34039.88225-.03233,1.24664-.773,1.6963-1.43931l1.2619-1.855c.13375-.20278.277-.40992.42062-.61826.16077-.23082.357-.45814.32171-.71328a.526.526,0,0,0-.5952-.44969c-.2743.03895-.39278.27493-.541.49894-.286.43176-.54695.80581-.83981,1.23861-.28212.41712-.55231.82477-.83981,1.23716-.1488.211-.27615.40662-.42145.61866-.12386.17786-.29389.48329-.61251.42517-.25245-.04534-.39548-.33221-.53026-.52512-.69637-.99149-1.4181-2.0813-2.10334-3.09525-.13994-.20485-.28357-.45133-.635-.39733a.52613.52613,0,0,0-.432.59807Zm8.59227-.59232c-.51768.107-.43361.5484-.43361,1.0896v3.07261a1.182,1.182,0,0,0,.08966.67905.52693.52693,0,0,0,.935-.136c.049-.16034.02348-2.02236.02348-2.276,0-.51029-.00021-1.02367-.00021-1.535a1.19206,1.19206,0,0,0-.08841-.67475.509.509,0,0,0-.526-.21949Zm.02165-1.84882A.69423.69423,0,0,0,31.6,18.139l-.37592.37489c-.24649.24855-.0445.345.263.65495.06593.06678.12181.12014.18734.18774.2471.24712.33694.06514.66134-.25842.44742-.44413.43422-.35243-.26256-1.04343a.23242.23242,0,0,0-.26607-.09193Z" />
    </g>
    <path class="b98b7382-e4b6-4967-8709-68c491546246"
      d="M42.04782,23.90293c3.5964-1.37509,5.55678-2.045,7.6966-5.352l-6.73495-1.82416v1.23037L44.068,15.40148l-.36911.36911a3.75965,3.75965,0,0,0-.56513,4.37978c.43738,1.02054.45913-1.76673,0-.69543-.47863,1.1168-.81907,2.55622,0,3.64831l.36911.49214-.36434-2.78495a27.709,27.709,0,0,0-.25214,4.03671l6.735-1.82415-.36911-.86126-4.94491,4.94491.36911.24607-1.79-3.12075c.07915.85359.23458,1.71944.35924,2.56263l4.44589-4.4459-.35317-.12539c-2.24463-.79694-4.575,1.27595-4.575,3.4851v.49214l5.43836-3.12075c-3.42351-1.94827-5.9461-1.85309-9.81527-.92944-5.2481,1.25283-10.87431.36628-16.261,1.22288l4.575,3.48509a58.23249,58.23249,0,0,0-.74316-9.47181l-3.48509,4.575,19.19.25259L39.8381,15.47915c-3.34391,1.60481-7.209,3.9219-10.80327,4.694a29.75437,29.75437,0,0,1-4.80381.1986l3.6142,3.6142-.36911-5.16754-3.6142,3.6142a25.42549,25.42549,0,0,1,3.15662-.39458c.38683.00165.89762.37136,2.48554.79864a10.29383,10.29383,0,0,0,6.757-.41753c4.15749-2.08847.50163-8.32619-3.64831-6.24151,2.28454-1.14762-.5352-.12545-1.08679-.22322a20.84849,20.84849,0,0,0-2.52915-1.0221,15.54273,15.54273,0,0,0-5.13493.27191c-1.82818.22852-3.76714,1.473-3.61419,3.61419l.3691,5.16754a3.67215,3.67215,0,0,0,3.6142,3.61419,39.03933,39.03933,0,0,0,5.70333-.28047c4.561-.88347,9.38334-3.59831,13.55206-5.599,3.362-1.6135,1.55672-6.69045-1.82416-6.73495l-19.19-.25258c-2.56718-.03379-3.832,2.325-3.4851,4.575a46.29445,46.29445,0,0,1,.485,7.55022c-.02288,2.55747,2.31632,3.84427,4.575,3.4851,4.406-.70065,8.80088.03042,13.17858-.56852,3.08831-.42252,4.79729-1.89365,7.32775-.4536a3.649,3.649,0,0,0,5.43835-3.12076v-.49214l-4.575,3.48509.35317.12539c2.88656,1.02486,4.80945-1.9869,4.44589-4.44589-.28033-1.89605-.64956-2.9341-2.26019-4.00786-3.351-2.234-6.21612,1.97873-4.9449,4.94491l.36911.86126c1.474,3.43938,6.73495,1.50133,6.73495-1.82416,0-1.75926.54941-3.67364-.73952-5.39221v3.64831a7.36675,7.36675,0,0,0,0-6.60119l-.56513,4.37978a5.15373,5.15373,0,0,0,1.42768-4.1551c0-3.69653-4.829-4.76973-6.73495-1.82415l-1.3534,2.09162,2.16-1.66094-4.18324,1.59947c-4.30162,1.64474-2.43469,8.63583,1.92159,6.97019Z" />
  </g>
</svg>